<svg xmlns="http://www.w3.org/2000/svg" xmlns:xlink="http://www.w3.org/1999/xlink" fill="none" version="1.1" width="1509" height="297" viewBox="0 0 1509 297"><defs><clipPath id="master_svg0_218_417416"><rect x="0" y="0" width="1509" height="297" rx="0"/></clipPath><radialGradient cx="0" cy="0" r="1" gradientUnits="userSpaceOnUse" id="master_svg1_96_9964" gradientTransform="translate(139.99995827674866 148.4999114871025) rotate(90) scale(148.4999114871025 139.9999499320785)"><stop offset="40.00000059604645%" stop-color="#DB0000" stop-opacity="1"/><stop offset="100%" stop-color="#FFC800" stop-opacity="1"/></radialGradient></defs><g clip-path="url(#master_svg0_218_417416)"><g><path d="M10.9871,163.001C10.9634,162.976,10.9464,162.946,10.9378,162.912C10.9292,162.878,10.9293,162.843,10.938,162.81C10.9467,162.776,10.9638,162.744,10.9876,162.719C11.0114,162.695,11.0412,162.675,11.0741,162.666C12.8236,162.11,14.3025,161.692,15.5106,161.412C17.7887,160.888,20.2647,160.251,22.9388,159.501C31.957,156.967,40.5321,153.058,48.6643,147.769C50.9165,146.306,53.8355,144.17,52.26,141.249C51.6671,140.157,50.6812,139.419,49.3022,139.036C38.8004,136.105,27.8683,132.277,19.2272,125.548C13.4245,121.036,8.7398,115.639,5.17313,109.355C3.35596,106.16,1.64512,102.667,0.040602,98.8763C-0.000821066,98.7768,-0.010849,98.6665,0.0119007,98.5609C0.0346504,98.4553,0.0890502,98.3595,0.167589,98.2867C0.246127,98.2139,0.344923,98.1676,0.45031,98.1545C0.555696,98.1413,0.662469,98.1618,0.755867,98.2131C12.0133,104.357,23.8651,108.297,36.3114,110.033C43.0002,110.966,49.639,110.774,56.2278,109.457C56.4437,109.415,57.0833,109.114,58.1465,108.555C58.2999,108.475,58.4373,108.369,58.5524,108.243C59.767,106.897,60.194,105.461,59.8331,103.933C59.6817,103.289,58.8246,102.023,57.2621,100.134C47.398,88.2319,39.5302,77.6215,33.8757,64.7048C33.7694,64.4611,33.7613,64.2464,33.8515,64.0612C33.9078,63.9471,34.0055,63.8593,34.1242,63.8158C34.2429,63.7721,34.3736,63.7763,34.4894,63.8271C46.1947,69.0056,57.9676,73.5451,70.3786,76.1101C72.4518,76.5343,74.1047,76.6318,76.1586,76.9389C76.8481,77.043,77.9983,76.9047,79.6093,76.5245C79.7624,76.4857,79.9069,76.4162,80.0346,76.3196C81.4427,75.2307,81.7825,73.8881,81.0543,72.2921C77.2815,64.032,74.6604,55.7133,73.1912,47.3363C72.6306,44.1506,72.3422,40.6853,72.3262,36.9405C72.3036,31.5281,72.36,28.0434,72.4953,26.4863C72.5114,26.3237,72.555,26.1856,72.6259,26.0718C72.6997,25.9527,72.8009,25.8534,72.9208,25.7823C73.0407,25.7112,73.176,25.6703,73.3149,25.6631C73.4539,25.6559,73.5926,25.6827,73.7191,25.741C73.8457,25.7995,73.9563,25.8878,74.0419,25.9987C77.6182,30.6244,81.4796,34.8162,85.6262,38.574C90.8458,43.3038,96.2249,47.5851,101.763,51.4176C102.15,51.6809,102.612,51.954,103.15,52.2368C105.006,53.2022,106.359,54.0848,108.529,53.3827C111.618,52.383,111.042,48.7113,111.1,45.8101C111.12,44.786,111.205,43.6516,111.357,42.4065C111.614,40.2937,111.848,38.1758,112.057,36.053C112.246,34.1466,112.666,32.557,113.053,30.4602C114.203,24.2058,116.275,17.7744,119.268,11.1656C120.032,9.48177,120.889,7.89868,121.839,6.41635C121.892,6.33357,121.964,6.2654,122.05,6.21801C122.135,6.17063,122.231,6.14557,122.328,6.14508C122.426,6.14461,122.522,6.16872,122.608,6.21524C122.694,6.26177,122.767,6.32922,122.82,6.41148C123.039,6.74629,123.202,7.112,123.308,7.50858C125.778,16.8365,129.591,25.984,133.883,34.6391C136.277,39.4696,137.718,42.3188,138.208,43.1868C140.045,46.444,142.973,47.7946,145.366,43.9572C145.553,43.6581,147.669,40.0645,151.716,33.1763C156.127,25.6735,161.336,19.1087,167.346,13.4818C172.742,8.42691,179.229,4.60244,186.802,2.00838C188.233,1.52077,190.114,1.25747,191.225,0.789364C191.611,0.6596,192.005,0.564955,192.404,0.506552L195.68,0.00431748C195.743,-0.004885,195.805,0.000671033,195.864,0.0205299C195.924,0.0403888,195.977,0.0739897,196.021,0.118623C196.064,0.163255,196.097,0.217664,196.116,0.277436C196.135,0.337207,196.14,0.400664,196.131,0.462669L196.067,0.867384C196.04,1.02694,195.951,1.16875,195.82,1.26234C195.344,1.59717,194.773,2.11565,194.11,2.81781C186.02,11.3997,180.356,21.2819,177.118,32.4642C175.951,36.5017,175.224,39.6939,174.933,42.0409C174.581,44.9113,174.397,46.6943,174.378,47.39C174.32,49.3355,174.527,51.4078,175.952,52.6512C178.597,54.9575,181.003,53.5728,183.217,51.6711C187.714,47.7963,190.59,45.3355,191.844,44.2888C199.794,37.6329,209.005,32.2156,219.068,29.1729C219.677,28.9876,220.596,28.7781,221.827,28.544C222.652,28.3846,223.568,28.149,224.577,27.8368C224.656,27.8122,224.741,27.8088,224.822,27.8272C224.904,27.8456,224.978,27.8851,225.041,27.9417C225.102,27.9984,225.147,28.0702,225.173,28.1502C225.199,28.2301,225.204,28.3154,225.185,28.3976C225.134,28.6415,225.029,28.8707,224.867,29.0852C221.488,33.5386,218.811,37.5794,216.839,41.2071C212.686,48.8528,209.444,56.266,207.116,63.4468C206.632,64.9356,206.22,66.3205,205.879,67.6013C205.779,67.9816,205.734,69.1324,205.748,71.0536C205.751,71.2588,205.8,71.4621,205.893,71.6483C207.179,74.1791,209.726,73.9157,212.012,73.1551C219.579,70.639,227.428,68.0303,234.9,66.904C236.06,66.7317,238.017,66.4749,240.773,66.1336C242.647,65.8995,244.387,65.789,245.992,65.802C249.306,65.8214,253.366,65.7141,257.116,66.2164C257.236,66.2324,257.347,66.2824,257.439,66.3606C257.53,66.439,257.597,66.5422,257.632,66.6581C257.667,66.7738,257.667,66.8972,257.635,67.0134C257.601,67.1298,257.536,67.2339,257.445,67.3135C254.258,70.0865,251.17,72.8642,248.18,75.6468C240.645,82.6748,233.795,89.9792,227.631,97.5599C227.142,98.1595,226.858,98.6715,226.369,99.4565C226.296,99.5763,226.241,99.7044,226.205,99.8369C225.767,101.462,226.171,102.746,227.419,103.689C228.354,104.398,229.242,104.765,230.087,104.791C233.705,104.908,238.22,104.932,242.361,104.401C244.72,104.099,246.744,103.845,248.431,103.64C251.032,103.325,255.657,102.372,262.307,100.783C262.832,100.656,263.408,100.476,264.037,100.242C264.956,99.9004,265.796,99.9539,266.599,99.6078C267.382,99.2664,268.135,99.047,268.861,98.9495C270.122,98.7788,270.973,98.106,272.355,97.9596C272.446,97.9495,272.539,97.9657,272.622,98.0064C272.705,98.0471,272.775,98.1108,272.823,98.1898C272.872,98.269,272.896,98.3602,272.896,98.4533C272.895,98.5462,272.869,98.6372,272.819,98.7154C268.696,105.162,263.81,111.798,258.402,116.879C254.339,120.698,249.784,124.165,244.735,127.279C242.198,128.846,239.305,130.553,236.055,132.399C234.472,133.3,233.839,134.569,234.156,136.207C234.571,138.353,237.692,139.889,239.729,140.191C241.632,140.474,243.187,140.83,244.918,140.879C250.988,141.054,255.422,140.999,258.219,140.713C262.539,140.271,268.377,139.073,275.733,137.119C275.885,137.077,276.188,137.025,276.641,136.963C277.628,136.822,278.614,136.207,279.571,136.066C279.641,136.056,279.712,136.066,279.778,136.096C279.842,136.125,279.898,136.172,279.936,136.232C279.975,136.291,279.998,136.361,280,136.433C280.001,136.504,279.983,136.575,279.947,136.637C274.964,144.862,267.948,152.42,259.47,157.107C254.241,160.003,248.742,162.032,242.942,163.581C241.991,163.835,240.576,164.186,238.698,164.634C235.255,165.461,233.181,166.044,232.479,166.386C230.493,167.35,229.974,168.921,230.918,171.096C231.163,171.658,231.895,172.433,233.117,173.422C238.143,177.482,242.656,181.68,246.659,186.017C252.335,192.17,256.653,199.01,259.61,206.534C260.512,208.826,261.129,210.845,261.462,212.591C261.476,212.666,261.473,212.742,261.45,212.814C261.429,212.886,261.39,212.952,261.337,213.007C261.284,213.061,261.22,213.1,261.147,213.125C261.076,213.148,260.999,213.154,260.925,213.142L260.359,213.05C260.306,213.039,260.254,213.018,260.21,212.986C258.837,211.998,256.813,210.882,254.139,209.641C245.64,205.688,236.939,202.686,228.037,200.636C227.342,200.476,225.511,200.14,222.547,199.625C220.754,199.313,219.435,199.348,217.385,199.328C215.262,199.305,214.083,200.297,213.848,202.303C213.819,202.543,213.848,202.785,213.935,203.01C214.386,204.174,215.093,205.685,216.056,207.545C219.859,214.873,222.382,223.07,223.735,231.159C224,232.733,224.149,234.002,224.181,234.967C224.243,236.87,224.586,238.269,224.615,240.059C224.637,241.752,224.645,243.652,224.634,245.758C224.625,248.137,224.19,250.527,224.117,253.033C224.105,253.416,224.049,253.794,223.948,254.16C223.441,256.008,223.253,257.871,222.784,259.373C222.387,260.656,222.128,261.56,222.006,262.083C221.961,262.278,221.912,262.395,221.86,262.435C221.767,262.499,221.661,262.543,221.55,262.565C221.439,262.585,221.325,262.582,221.214,262.554C221.104,262.526,221.001,262.476,220.912,262.407C220.823,262.337,220.75,262.248,220.696,262.147C219.739,260.313,218.628,258.39,217.361,256.378C212.967,249.402,208.07,242.894,202.674,236.854C199.107,232.866,194.985,228.93,191.24,226.165C189.006,224.523,185.909,222.26,183.971,225.172C183.339,226.118,183.033,227.324,183.053,228.794C183.082,231.427,183.236,235.796,182.811,239.209C182.663,240.418,182.566,242.015,182.52,243.998C182.52,244.037,182.517,244.076,182.511,244.116L181.419,250.913C181.409,250.963,181.396,251.014,181.381,251.063C180.926,252.419,180.732,254.096,180.399,255.398C178.495,262.839,175.659,269.817,171.888,276.331C171.847,276.406,171.783,276.464,171.707,276.501C171.631,276.538,171.544,276.55,171.46,276.536C171.377,276.522,171.299,276.484,171.238,276.424C171.177,276.365,171.136,276.288,171.119,276.204C168.659,264.583,164.381,253.684,158.288,243.505C156.759,240.954,155.169,238.702,153.519,236.752C153.046,236.193,152.472,235.643,151.798,235.105C150.31,233.92,147.797,233.913,146.898,235.83C146.637,236.38,146.34,237.312,146.008,238.629C144.989,242.681,143.616,246.694,142.306,250.297C140.083,256.406,137.253,262.289,133.815,267.949C128.397,276.867,120.844,285.371,112.217,290.93C108.537,293.3,104.545,295.311,100.241,296.966C100.144,297.004,100.037,297.011,99.9368,296.983C99.8364,296.955,99.7472,296.896,99.6824,296.813C99.6176,296.732,99.5806,296.631,99.5768,296.525C99.573,296.421,99.6025,296.317,99.6611,296.23C102.606,291.88,105.156,287.344,107.311,282.621C110.975,274.589,113.441,266.173,114.711,257.373C115.005,255.33,114.885,253.428,115.228,251.473C115.605,249.327,115.315,245.968,115.416,244.832C115.477,244.103,115.407,242.673,115.204,240.541C115.071,239.123,114.97,237.389,114.899,235.337C114.889,235.052,114.852,234.768,114.788,234.489C114.678,234.002,114.588,233.436,114.517,232.793C114.339,231.135,113.623,230.101,112.251,229.068C110.013,227.381,108.268,228.267,106.466,230.131C105.924,230.692,103.266,233.119,98.4915,237.41C90.5752,244.524,82.2384,250.02,72.3165,253.551C69.987,254.379,68.3262,254.869,67.3337,255.017C67.116,255.049,66.9041,255.115,66.7056,255.213C66.0417,255.541,65.2781,255.761,64.4147,255.872C64.333,255.881,64.2502,255.867,64.1761,255.83C64.102,255.793,64.0396,255.738,63.9961,255.668C63.9526,255.596,63.9298,255.515,63.9304,255.432C63.9308,255.349,63.9547,255.268,63.9991,255.198C71.6835,243.397,77.5747,230.282,80.7693,216.496C81.1301,214.944,81.4233,213.356,81.6489,211.738C82.0065,209.195,81.0575,207.578,78.8023,206.886C78.4404,206.778,78.0589,206.759,77.6907,206.833L75.5351,207.277C75.4741,207.289,75.4158,207.307,75.3612,207.33C70.0741,209.501,64.6177,211.282,58.9922,212.669C56.5242,213.277,53.618,213.814,50.2737,214.278C44.0006,215.152,37.6341,215.239,31.174,214.537C31.0637,214.524,30.959,214.478,30.8733,214.408C30.7875,214.336,30.7244,214.241,30.6915,214.134C30.6585,214.027,30.6574,213.913,30.6883,213.806C30.719,213.699,30.7803,213.604,30.8648,213.532C41.5068,204.38,51.3611,194.111,59.4175,182.759C61.5488,179.755,60.3599,178.035,57.5906,176.26C57.437,176.162,57.2689,176.09,57.0929,176.044C54.6861,175.446,51.9941,175.567,49.8677,175.221C49.6744,175.189,48.0506,175.075,44.9961,174.879C41.9514,174.682,38.1125,174.048,33.4793,172.978C25.4858,171.135,18.1849,167.973,11.5767,163.494C11.3286,163.325,11.1321,163.16,10.9871,163.001ZM118.944,73.9499C118.574,74.8828,118.388,75.4599,118.388,75.6809C118.392,101.807,118.385,119.629,118.369,129.147C118.366,129.305,118.394,129.461,118.451,129.605C119.268,131.731,121.544,132.521,123.763,132.009C129.198,130.748,134.102,128.695,138.474,125.851C142.936,122.948,147.044,119.46,150.798,115.387C160.566,104.776,167.291,92.5049,170.97,78.5724C171.074,78.1693,171.083,77.2786,170.999,75.9003C170.987,75.6987,170.925,75.5043,170.821,75.3346C169.747,73.6036,167.988,72.6822,166.124,71.9848C160.887,70.0344,155.099,68.8202,148.758,68.3424C143.21,67.9231,136.882,68.4058,129.775,69.7905C128.741,69.9905,127.9,70.4098,127.001,70.5366C125.169,70.7999,124.087,71.2582,121.868,71.9165C121.114,72.1408,120.236,72.6837,119.234,73.5451C119.107,73.6541,119.008,73.7928,118.944,73.9499ZM151.963,143.166C153.268,144.458,154.641,145.375,156.08,146.437C163.788,152.139,170.596,158.618,176.509,165.873C181.941,172.545,187.224,180.117,191.336,187.425C191.601,187.894,191.963,188.336,192.424,188.753C192.614,188.921,192.844,189.036,193.092,189.086C193.34,189.137,193.596,189.122,193.834,189.04C195.778,188.376,196.749,186.787,198.174,184.827C205.095,175.36,209.533,164.904,211.485,153.454C211.572,152.941,211.829,150.176,212.258,145.16C212.5,142.335,212.505,139.574,212.272,136.875C211.943,133.049,211.657,130.303,211.412,128.635C209.533,115.874,204.153,103.767,195.502,94.205C193.603,92.1035,191.791,92.1376,190.418,94.7463C188.295,98.7805,186.173,102.543,184.053,106.034C181.221,110.699,178.005,115.328,174.406,119.922C172.428,122.444,170.138,125.032,167.534,127.684C162.257,133.072,158.603,136.539,153.321,140.24C152.731,140.65,152.242,141.108,151.856,141.615C151.683,141.841,151.599,142.124,151.618,142.409C151.638,142.695,151.76,142.964,151.963,143.166ZM93.5329,189.02C94.5479,188.829,95.2775,188.471,95.7222,187.947C96.0057,187.612,96.1476,186.819,96.1476,185.568C96.0862,136.742,96.083,107.143,96.1378,96.7699C96.1444,95.5768,95.9333,94.7918,95.5048,94.4147C93.8841,92.9844,92.3666,92.9893,90.9522,94.4294C89.512,95.8987,87.5756,98.5172,85.1429,102.285C84.7306,102.919,84.0975,103.988,83.2437,105.493C82.5864,106.657,82.008,107.761,81.5087,108.804C78.8666,114.324,76.919,120.089,75.6657,126.099C75.4659,127.055,75.3306,127.934,75.2597,128.737C75.1631,129.787,75.0278,130.67,74.8537,131.385C74.8216,131.525,74.6782,132.84,74.4237,135.33C74.3141,136.383,74.298,139.463,74.3753,144.57C74.4188,147.686,75.0133,151.509,75.5546,155.038C77.362,166.81,83.2292,178.019,90.7443,187.245C91.5918,188.286,92.3666,188.877,93.0689,189.02C93.2223,189.05,93.3796,189.05,93.5329,189.02ZM119.06,156.243C118.732,157.144,118.562,157.881,118.553,158.457C118.414,167.897,118.359,183.048,118.388,203.912C118.388,205.291,118.606,207.115,119.78,207.92C121.121,208.846,122.598,209.512,124.212,209.919C130.099,211.41,135.829,212.278,141.403,212.523C143.693,212.62,147.16,212.473,151.803,212.079C154.148,211.879,156.022,211.357,158.337,210.992C160.303,210.686,163.998,209.614,169.424,207.779C169.745,207.672,170.237,207.399,170.897,206.964C173.363,205.349,172.816,202.513,171.73,200.143C170.724,197.949,169.843,196.077,169.085,194.526C165.909,188.03,161.942,181.995,157.186,176.421C149.793,167.751,140.982,161.421,130.756,157.433C128.228,156.448,124.72,155.434,121.854,155.097C121.228,155.023,120.431,155.248,119.461,155.775C119.275,155.876,119.132,156.043,119.06,156.243Z" fill="url(#master_svg1_96_9964)" fill-opacity="1" style="mix-blend-mode:passthrough"/></g></g></svg>